<?xml version="1.0" encoding="UTF-8" standalone="no"?>
<!DOCTYPE svg PUBLIC "-//W3C//DTD SVG 1.1//EN" "http://www.w3.org/Graphics/SVG/1.1/DTD/svg11.dtd">
<svg width="100%" height="100%" viewBox="0 0 1048 713" version="1.1" xmlns="http://www.w3.org/2000/svg" xmlns:xlink="http://www.w3.org/1999/xlink" xml:space="preserve" xmlns:serif="http://www.serif.com/" style="fill-rule:evenodd;clip-rule:evenodd;">
    <style type="text/css">
        .silver{fill:url(#SilverGradient)}
    </style>
    <defs>
        <linearGradient id="SilverGradient">
          <stop offset="5%" stop-color="#7f7f81" />
          <stop offset="50%" stop-color="#edf0f3" />
          <stop offset="95%" stop-color="#7f8183" />
        </linearGradient>
      </defs>
    <g transform="matrix(1,0,0,1,9.01468,26.0094)">
        <g>
            <path d="M554.4,96.273C497.258,45.631 423.49,17.647 347.136,17.647C175.707,17.647 34.642,158.712 34.642,330.141C34.642,501.57 175.707,642.635 347.136,642.635C423.49,642.635 497.258,614.651 554.4,564.009" 
                style="fill-opacity:0;fill-rule:nonzero;stroke:#7f8183;stroke-width:33px;"/>
            <g transform="matrix(1,0,0,1,70.5882,78.6263)">
                <g transform="matrix(1,0,0,1,70.5882,21.1765)">
                    <g>
                        <g>
                            <g transform="matrix(1,0,0,1,-17.9294,291.459)">
                                <path d="M86.471,-239.576L292.376,-239.576L292.376,-273.812L86.471,-273.812C67.647,-273.812 51.529,-267.176 38.118,-253.906C24.659,-240.447 17.929,-224.235 17.929,-205.271L17.929,-188.259C17.929,-169.294 24.659,-153.082 38.118,-139.624C51.529,-126.165 67.647,-119.435 86.471,-119.435L223.835,-119.435C233.247,-119.435 241.294,-116.094 247.976,-109.412C254.706,-102.824 258.071,-94.753 258.071,-85.2L258.071,-50.894C258.071,-41.482 254.706,-33.412 247.976,-26.682C241.294,-20 233.247,-16.659 223.835,-16.659L17.929,-16.659L17.929,17.647L223.835,17.647C242.659,17.647 258.776,10.918 272.188,-2.541C285.647,-15.953 292.376,-32.071 292.376,-50.894L292.376,-85.2C292.376,-104.165 285.647,-120.376 272.188,-133.835C258.776,-147.106 242.659,-153.741 223.835,-153.741L86.471,-153.741C77.059,-153.741 68.988,-157.106 62.259,-163.835C55.576,-170.565 52.235,-178.706 52.235,-188.259L52.235,-205.271C52.235,-214.682 55.576,-222.753 62.259,-229.482C68.988,-236.212 77.059,-239.576 86.471,-239.576ZM448.306,17.647L328.235,17.647L328.235,-16.659L448.306,-16.659C462.471,-16.659 474.565,-21.647 484.588,-31.624C494.612,-41.788 499.624,-53.976 499.624,-68.188L499.624,-273.812L534.071,-273.812L534.071,-68.188C534.071,-44.424 525.647,-24.165 508.8,-7.412C492.047,9.294 471.882,17.647 448.306,17.647ZM569.929,-273.812L569.929,-239.576L844.376,-239.576L844.376,-273.812L569.929,-273.812ZM569.929,-68.188L569.929,17.647L604.235,17.647L604.235,-68.188C604.235,-82.353 609.224,-94.447 619.2,-104.471C629.365,-114.447 641.553,-119.435 655.765,-119.435L844.376,-119.435L844.376,-153.741L655.765,-153.741C632,-153.741 611.765,-145.388 595.059,-128.682C578.306,-111.929 569.929,-91.765 569.929,-68.188Z" 
                                    class="silver" style="fill-rule:nonzero;"/>
                            </g>
                            <g transform="matrix(0.97453,0,0,0.97453,-6.94783,425.383)">
                                <g>
                                    <path d="M116.047,4.024L116.047,17.647L41.153,17.647C31.741,17.647 23.718,14.329 17.082,7.694C10.447,1.059 7.129,-6.988 7.129,-16.447L7.129,-64.094C7.129,-73.459 10.447,-81.459 17.082,-88.094C23.718,-94.729 31.741,-98.047 41.153,-98.047L116.047,-98.047L116.047,-84.494L41.153,-84.494C35.553,-84.494 30.729,-82.494 26.682,-78.494C22.729,-74.541 20.753,-69.741 20.753,-64.094L20.753,-16.447C20.753,-10.8 22.729,-5.953 26.682,-1.906C30.729,2.047 35.553,4.024 41.153,4.024L116.047,4.024ZM205.2,-84.494L164.4,-84.494C158.753,-84.494 153.906,-82.494 149.859,-78.494C145.906,-74.541 143.929,-69.741 143.929,-64.094L143.929,-16.447C143.929,-10.8 145.906,-5.953 149.859,-1.906C153.906,2.047 158.753,4.024 164.4,4.024L205.2,4.024C210.847,4.024 215.647,2.047 219.6,-1.906C223.647,-5.953 225.671,-10.8 225.671,-16.447L225.671,-64.094C225.671,-69.741 223.647,-74.541 219.6,-78.494C215.647,-82.494 210.847,-84.494 205.2,-84.494ZM205.2,17.647L164.4,17.647C154.941,17.647 146.894,14.329 140.259,7.694C133.624,1.059 130.306,-6.988 130.306,-16.447L130.306,-64.094C130.306,-73.459 133.624,-81.459 140.259,-88.094C146.894,-94.729 154.941,-98.047 164.4,-98.047L205.2,-98.047C214.565,-98.047 222.588,-94.729 229.271,-88.094C235.953,-81.459 239.294,-73.459 239.294,-64.094L239.294,-16.447C239.294,-6.988 235.953,1.059 229.271,7.694C222.588,14.329 214.565,17.647 205.2,17.647ZM362.471,-98.047L348.847,-98.047L348.847,-1.271L269.153,-98.047L253.482,-98.047L253.482,17.647L267.106,17.647L267.106,-79.129L346.8,17.647L362.471,17.647L362.471,-98.047ZM485.647,4.024L485.647,17.647L410.753,17.647C401.341,17.647 393.294,14.329 386.612,7.694C379.976,1.059 376.659,-6.988 376.659,-16.447L376.659,-64.094C376.659,-73.459 379.976,-81.459 386.612,-88.094C393.294,-94.729 401.341,-98.047 410.753,-98.047L485.647,-98.047L485.647,-84.494L410.753,-84.494C405.106,-84.494 400.259,-82.494 396.212,-78.494C392.259,-74.541 390.282,-69.741 390.282,-64.094L390.282,-16.447C390.282,-10.8 392.259,-5.953 396.212,-1.906C400.259,2.047 405.106,4.024 410.753,4.024L485.647,4.024ZM499.835,4.024L499.835,17.647L608.824,17.647L608.824,4.024L499.835,4.024ZM499.835,-50.4L499.835,-36.776L608.824,-36.776L608.824,-50.4L499.835,-50.4ZM499.835,-98.047L499.835,-84.494L608.824,-84.494L608.824,-98.047L499.835,-98.047ZM636.635,-64.094L636.635,-50.4L701.294,-50.4C706,-50.4 710.047,-52.094 713.435,-55.482C716.729,-58.776 718.376,-62.776 718.376,-67.482L718.376,-84.494L657.106,-84.494C651.459,-84.494 646.635,-82.494 642.635,-78.494C638.635,-74.541 636.635,-69.741 636.635,-64.094ZM636.635,-36.776L636.635,17.647L623.082,17.647L623.082,-64.094C623.082,-73.459 626.4,-81.459 633.035,-88.094C639.671,-94.729 647.694,-98.047 657.106,-98.047L732,-98.047L732,-67.482C732,-59.012 729.012,-51.765 723.035,-45.741C717.059,-39.765 709.812,-36.776 701.294,-36.776L636.635,-36.776ZM855.176,-98.047L746.259,-98.047L746.259,-84.494L793.906,-84.494L793.906,17.647L807.529,17.647L807.529,-84.494L855.176,-84.494L855.176,-98.047Z" 
                                        class="silver" style="fill-rule:nonzero;"/>
                                </g>
                            </g>
                        </g>
                    </g>
                </g>
            </g>
        </g>
    </g>
</svg>
